<?xml version="1.0" encoding="UTF-8" standalone="no"?>
<!DOCTYPE svg PUBLIC "-//W3C//DTD SVG 1.1//EN"
 "http://www.w3.org/Graphics/SVG/1.1/DTD/svg11.dtd">
<!-- Generated by graphviz version 2.42.3 (20191010.1750)
 -->
<!-- Title: snakemake_dag Pages: 1 -->
<svg width="431pt" height="404pt"
 viewBox="0.00 0.00 431.00 404.00" xmlns="http://www.w3.org/2000/svg" xmlns:xlink="http://www.w3.org/1999/xlink">
<g id="graph0" class="graph" transform="scale(1 1) rotate(0) translate(4 400)">
<title>snakemake_dag</title>
<polygon fill="white" stroke="transparent" points="-4,4 -4,-400 427,-400 427,4 -4,4"/>
<!-- 0 -->
<g id="node1" class="node">
<title>0</title>
<path fill="none" stroke="#56d8a2" stroke-width="2" stroke-dasharray="5,2" d="M256,-36C256,-36 226,-36 226,-36 220,-36 214,-30 214,-24 214,-24 214,-12 214,-12 214,-6 220,0 226,0 226,0 256,0 256,0 262,0 268,-6 268,-12 268,-12 268,-24 268,-24 268,-30 262,-36 256,-36"/>
<text text-anchor="middle" x="241" y="-15.5" font-family="sans" font-size="10.00">all</text>
</g>
<!-- 1 -->
<g id="node2" class="node">
<title>1</title>
<path fill="none" stroke="#56d87b" stroke-width="2" stroke-dasharray="5,2" d="M42,-108C42,-108 12,-108 12,-108 6,-108 0,-102 0,-96 0,-96 0,-84 0,-84 0,-78 6,-72 12,-72 12,-72 42,-72 42,-72 48,-72 54,-78 54,-84 54,-84 54,-96 54,-96 54,-102 48,-108 42,-108"/>
<text text-anchor="middle" x="27" y="-87.5" font-family="sans" font-size="10.00">multiqc</text>
</g>
<!-- 1&#45;&gt;0 -->
<g id="edge1" class="edge">
<title>1&#45;&gt;0</title>
<path fill="none" stroke="grey" stroke-width="2" d="M54.33,-75.57C57.23,-74.3 60.16,-73.09 63,-72 110.76,-53.73 167.66,-37.76 204.04,-28.25"/>
<polygon fill="grey" stroke="grey" stroke-width="2" points="204.93,-31.63 213.74,-25.74 203.18,-24.86 204.93,-31.63"/>
</g>
<!-- 2 -->
<g id="node3" class="node">
<title>2</title>
<path fill="none" stroke="#59d856" stroke-width="2" stroke-dasharray="5,2" d="M114,-324C114,-324 84,-324 84,-324 78,-324 72,-318 72,-312 72,-312 72,-300 72,-300 72,-294 78,-288 84,-288 84,-288 114,-288 114,-288 120,-288 126,-294 126,-300 126,-300 126,-312 126,-312 126,-318 120,-324 114,-324"/>
<text text-anchor="middle" x="99" y="-303.5" font-family="sans" font-size="10.00">fastqc</text>
</g>
<!-- 2&#45;&gt;1 -->
<g id="edge6" class="edge">
<title>2&#45;&gt;1</title>
<path fill="none" stroke="grey" stroke-width="2" d="M86.2,-287.62C79.36,-277.63 71.28,-264.59 66,-252 47.11,-206.97 36.12,-150.84 30.86,-118.15"/>
<polygon fill="grey" stroke="grey" stroke-width="2" points="34.28,-117.36 29.29,-108.01 27.36,-118.43 34.28,-117.36"/>
</g>
<!-- 3 -->
<g id="node4" class="node">
<title>3</title>
<path fill="none" stroke="#d85656" stroke-width="2" stroke-dasharray="5,2" d="M190.5,-396C190.5,-396 79.5,-396 79.5,-396 73.5,-396 67.5,-390 67.5,-384 67.5,-384 67.5,-372 67.5,-372 67.5,-366 73.5,-360 79.5,-360 79.5,-360 190.5,-360 190.5,-360 196.5,-360 202.5,-366 202.5,-372 202.5,-372 202.5,-384 202.5,-384 202.5,-390 196.5,-396 190.5,-396"/>
<text text-anchor="middle" x="135" y="-381" font-family="sans" font-size="10.00">fastq_dump</text>
<text text-anchor="middle" x="135" y="-370" font-family="sans" font-size="10.00">sample: SAMN09521106</text>
</g>
<!-- 3&#45;&gt;2 -->
<g id="edge7" class="edge">
<title>3&#45;&gt;2</title>
<path fill="none" stroke="grey" stroke-width="2" d="M126.1,-359.7C122,-351.73 117.05,-342.1 112.51,-333.26"/>
<polygon fill="grey" stroke="grey" stroke-width="2" points="115.48,-331.4 107.8,-324.1 109.26,-334.6 115.48,-331.4"/>
</g>
<!-- 6 -->
<g id="node7" class="node">
<title>6</title>
<path fill="none" stroke="#567bd8" stroke-width="2" stroke-dasharray="5,2" d="M189,-324C189,-324 159,-324 159,-324 153,-324 147,-318 147,-312 147,-312 147,-300 147,-300 147,-294 153,-288 159,-288 159,-288 189,-288 189,-288 195,-288 201,-294 201,-300 201,-300 201,-312 201,-312 201,-318 195,-324 189,-324"/>
<text text-anchor="middle" x="174" y="-303.5" font-family="sans" font-size="10.00">trim</text>
</g>
<!-- 3&#45;&gt;6 -->
<g id="edge10" class="edge">
<title>3&#45;&gt;6</title>
<path fill="none" stroke="grey" stroke-width="2" d="M144.64,-359.7C149.13,-351.64 154.56,-341.89 159.52,-332.98"/>
<polygon fill="grey" stroke="grey" stroke-width="2" points="162.66,-334.54 164.47,-324.1 156.55,-331.14 162.66,-334.54"/>
</g>
<!-- 4 -->
<g id="node5" class="node">
<title>4</title>
<path fill="none" stroke="#56a2d8" stroke-width="2" stroke-dasharray="5,2" d="M167.5,-108C167.5,-108 84.5,-108 84.5,-108 78.5,-108 72.5,-102 72.5,-96 72.5,-96 72.5,-84 72.5,-84 72.5,-78 78.5,-72 84.5,-72 84.5,-72 167.5,-72 167.5,-72 173.5,-72 179.5,-78 179.5,-84 179.5,-84 179.5,-96 179.5,-96 179.5,-102 173.5,-108 167.5,-108"/>
<text text-anchor="middle" x="126" y="-87.5" font-family="sans" font-size="10.00">multiqc_after_trim</text>
</g>
<!-- 4&#45;&gt;0 -->
<g id="edge2" class="edge">
<title>4&#45;&gt;0</title>
<path fill="none" stroke="grey" stroke-width="2" d="M154.13,-71.88C169.51,-62.52 188.71,-50.83 205.14,-40.83"/>
<polygon fill="grey" stroke="grey" stroke-width="2" points="207.23,-43.65 213.95,-35.47 203.59,-37.67 207.23,-43.65"/>
</g>
<!-- 5 -->
<g id="node6" class="node">
<title>5</title>
<path fill="none" stroke="#56c9d8" stroke-width="2" stroke-dasharray="5,2" d="M164.5,-252C164.5,-252 87.5,-252 87.5,-252 81.5,-252 75.5,-246 75.5,-240 75.5,-240 75.5,-228 75.5,-228 75.5,-222 81.5,-216 87.5,-216 87.5,-216 164.5,-216 164.5,-216 170.5,-216 176.5,-222 176.5,-228 176.5,-228 176.5,-240 176.5,-240 176.5,-246 170.5,-252 164.5,-252"/>
<text text-anchor="middle" x="126" y="-231.5" font-family="sans" font-size="10.00">fastqc_after_trim</text>
</g>
<!-- 5&#45;&gt;4 -->
<g id="edge8" class="edge">
<title>5&#45;&gt;4</title>
<path fill="none" stroke="grey" stroke-width="2" d="M126,-215.87C126,-191.67 126,-147.21 126,-118.39"/>
<polygon fill="grey" stroke="grey" stroke-width="2" points="129.5,-118.19 126,-108.19 122.5,-118.19 129.5,-118.19"/>
</g>
<!-- 6&#45;&gt;5 -->
<g id="edge9" class="edge">
<title>6&#45;&gt;5</title>
<path fill="none" stroke="grey" stroke-width="2" d="M162.13,-287.7C156.5,-279.47 149.65,-269.48 143.43,-260.42"/>
<polygon fill="grey" stroke="grey" stroke-width="2" points="146.27,-258.37 137.73,-252.1 140.5,-262.33 146.27,-258.37"/>
</g>
<!-- 9 -->
<g id="node10" class="node">
<title>9</title>
<path fill="none" stroke="#9fd856" stroke-width="2" stroke-dasharray="5,2" d="M237,-252C237,-252 207,-252 207,-252 201,-252 195,-246 195,-240 195,-240 195,-228 195,-228 195,-222 201,-216 207,-216 207,-216 237,-216 237,-216 243,-216 249,-222 249,-228 249,-228 249,-240 249,-240 249,-246 243,-252 237,-252"/>
<text text-anchor="middle" x="222" y="-231.5" font-family="sans" font-size="10.00">spades</text>
</g>
<!-- 6&#45;&gt;9 -->
<g id="edge13" class="edge">
<title>6&#45;&gt;9</title>
<path fill="none" stroke="grey" stroke-width="2" d="M185.87,-287.7C191.5,-279.47 198.35,-269.48 204.57,-260.42"/>
<polygon fill="grey" stroke="grey" stroke-width="2" points="207.5,-262.33 210.27,-252.1 201.73,-258.37 207.5,-262.33"/>
</g>
<!-- 13 -->
<g id="node14" class="node">
<title>13</title>
<path fill="none" stroke="#78d856" stroke-width="2" stroke-dasharray="5,2" d="M352,-252C352,-252 322,-252 322,-252 316,-252 310,-246 310,-240 310,-240 310,-228 310,-228 310,-222 316,-216 322,-216 322,-216 352,-216 352,-216 358,-216 364,-222 364,-228 364,-228 364,-240 364,-240 364,-246 358,-252 352,-252"/>
<text text-anchor="middle" x="337" y="-231.5" font-family="sans" font-size="10.00">map</text>
</g>
<!-- 6&#45;&gt;13 -->
<g id="edge17" class="edge">
<title>6&#45;&gt;13</title>
<path fill="none" stroke="grey" stroke-width="2" d="M201.28,-293.28C228.51,-281.59 270.53,-263.55 300.59,-250.64"/>
<polygon fill="grey" stroke="grey" stroke-width="2" points="302.09,-253.8 309.9,-246.64 299.33,-247.37 302.09,-253.8"/>
</g>
<!-- 7 -->
<g id="node8" class="node">
<title>7</title>
<path fill="none" stroke="#d8c356" stroke-width="2" stroke-dasharray="5,2" d="M272,-108C272,-108 210,-108 210,-108 204,-108 198,-102 198,-96 198,-96 198,-84 198,-84 198,-78 204,-72 210,-72 210,-72 272,-72 272,-72 278,-72 284,-78 284,-84 284,-84 284,-96 284,-96 284,-102 278,-108 272,-108"/>
<text text-anchor="middle" x="241" y="-87.5" font-family="sans" font-size="10.00">multiqc_quast</text>
</g>
<!-- 7&#45;&gt;0 -->
<g id="edge3" class="edge">
<title>7&#45;&gt;0</title>
<path fill="none" stroke="grey" stroke-width="2" d="M241,-71.7C241,-63.98 241,-54.71 241,-46.11"/>
<polygon fill="grey" stroke="grey" stroke-width="2" points="244.5,-46.1 241,-36.1 237.5,-46.1 244.5,-46.1"/>
</g>
<!-- 8 -->
<g id="node9" class="node">
<title>8</title>
<path fill="none" stroke="#56d8c9" stroke-width="2" stroke-dasharray="5,2" d="M250.5,-180C250.5,-180 189.5,-180 189.5,-180 183.5,-180 177.5,-174 177.5,-168 177.5,-168 177.5,-156 177.5,-156 177.5,-150 183.5,-144 189.5,-144 189.5,-144 250.5,-144 250.5,-144 256.5,-144 262.5,-150 262.5,-156 262.5,-156 262.5,-168 262.5,-168 262.5,-174 256.5,-180 250.5,-180"/>
<text text-anchor="middle" x="220" y="-159.5" font-family="sans" font-size="10.00">quast_denovo</text>
</g>
<!-- 8&#45;&gt;7 -->
<g id="edge11" class="edge">
<title>8&#45;&gt;7</title>
<path fill="none" stroke="grey" stroke-width="2" d="M225.19,-143.7C227.53,-135.9 230.35,-126.51 232.95,-117.83"/>
<polygon fill="grey" stroke="grey" stroke-width="2" points="236.35,-118.69 235.87,-108.1 229.64,-116.68 236.35,-118.69"/>
</g>
<!-- 9&#45;&gt;8 -->
<g id="edge12" class="edge">
<title>9&#45;&gt;8</title>
<path fill="none" stroke="grey" stroke-width="2" d="M221.51,-215.7C221.29,-207.98 221.02,-198.71 220.77,-190.11"/>
<polygon fill="grey" stroke="grey" stroke-width="2" points="224.27,-190 220.49,-180.1 217.28,-190.2 224.27,-190"/>
</g>
<!-- 10 -->
<g id="node11" class="node">
<title>10</title>
<path fill="none" stroke="#d8a456" stroke-width="2" stroke-dasharray="5,2" d="M323,-180C323,-180 293,-180 293,-180 287,-180 281,-174 281,-168 281,-168 281,-156 281,-156 281,-150 287,-144 293,-144 293,-144 323,-144 323,-144 329,-144 335,-150 335,-156 335,-156 335,-168 335,-168 335,-174 329,-180 323,-180"/>
<text text-anchor="middle" x="308" y="-159.5" font-family="sans" font-size="10.00">prokka</text>
</g>
<!-- 9&#45;&gt;10 -->
<g id="edge14" class="edge">
<title>9&#45;&gt;10</title>
<path fill="none" stroke="grey" stroke-width="2" d="M243.26,-215.7C254.09,-206.88 267.42,-196.03 279.16,-186.47"/>
<polygon fill="grey" stroke="grey" stroke-width="2" points="281.44,-189.13 286.99,-180.1 277.02,-183.7 281.44,-189.13"/>
</g>
<!-- 10&#45;&gt;0 -->
<g id="edge4" class="edge">
<title>10&#45;&gt;0</title>
<path fill="none" stroke="grey" stroke-width="2" d="M308.11,-143.99C307.58,-125.35 304.74,-95.03 293,-72 287.52,-61.25 279.1,-51.28 270.62,-42.95"/>
<polygon fill="grey" stroke="grey" stroke-width="2" points="272.93,-40.32 263.22,-36.08 268.16,-45.45 272.93,-40.32"/>
</g>
<!-- 11 -->
<g id="node12" class="node">
<title>11</title>
<path fill="none" stroke="#c6d856" stroke-width="2" stroke-dasharray="5,2" d="M411,-108C411,-108 355,-108 355,-108 349,-108 343,-102 343,-96 343,-96 343,-84 343,-84 343,-78 349,-72 355,-72 355,-72 411,-72 411,-72 417,-72 423,-78 423,-84 423,-84 423,-96 423,-96 423,-102 417,-108 411,-108"/>
<text text-anchor="middle" x="383" y="-87.5" font-family="sans" font-size="10.00">multiqc_map</text>
</g>
<!-- 11&#45;&gt;0 -->
<g id="edge5" class="edge">
<title>11&#45;&gt;0</title>
<path fill="none" stroke="grey" stroke-width="2" d="M348.26,-71.88C326.81,-61.3 299.31,-47.74 277.53,-37.01"/>
<polygon fill="grey" stroke="grey" stroke-width="2" points="278.79,-33.73 268.27,-32.44 275.69,-40 278.79,-33.73"/>
</g>
<!-- 12 -->
<g id="node13" class="node">
<title>12</title>
<path fill="none" stroke="#d87d56" stroke-width="2" stroke-dasharray="5,2" d="M403,-180C403,-180 365,-180 365,-180 359,-180 353,-174 353,-168 353,-168 353,-156 353,-156 353,-150 359,-144 365,-144 365,-144 403,-144 403,-144 409,-144 415,-150 415,-156 415,-156 415,-168 415,-168 415,-174 409,-180 403,-180"/>
<text text-anchor="middle" x="384" y="-159.5" font-family="sans" font-size="10.00">qualimap</text>
</g>
<!-- 12&#45;&gt;11 -->
<g id="edge15" class="edge">
<title>12&#45;&gt;11</title>
<path fill="none" stroke="grey" stroke-width="2" d="M383.75,-143.7C383.64,-135.98 383.51,-126.71 383.39,-118.11"/>
<polygon fill="grey" stroke="grey" stroke-width="2" points="386.89,-118.05 383.24,-108.1 379.89,-118.15 386.89,-118.05"/>
</g>
<!-- 13&#45;&gt;12 -->
<g id="edge16" class="edge">
<title>13&#45;&gt;12</title>
<path fill="none" stroke="grey" stroke-width="2" d="M348.62,-215.7C354.14,-207.47 360.85,-197.48 366.93,-188.42"/>
<polygon fill="grey" stroke="grey" stroke-width="2" points="369.85,-190.36 372.52,-180.1 364.04,-186.46 369.85,-190.36"/>
</g>
</g>
</svg>
