<?xml version="1.0" encoding="UTF-8" standalone="no"?>
<!DOCTYPE svg PUBLIC "-//W3C//DTD SVG 1.1//EN"
 "http://www.w3.org/Graphics/SVG/1.1/DTD/svg11.dtd">
<!-- Generated by graphviz version 2.42.3 (20191010.1750)
 -->
<!-- Title: snakemake_dag Pages: 1 -->
<svg width="346pt" height="404pt"
 viewBox="0.00 0.00 346.00 404.00" xmlns="http://www.w3.org/2000/svg" xmlns:xlink="http://www.w3.org/1999/xlink">
<g id="graph0" class="graph" transform="scale(1 1) rotate(0) translate(4 400)">
<title>snakemake_dag</title>
<polygon fill="white" stroke="transparent" points="-4,4 -4,-400 342,-400 342,4 -4,4"/>
<!-- 0 -->
<g id="node1" class="node">
<title>0</title>
<path fill="none" stroke="#568ad8" stroke-width="2" d="M184,-36C184,-36 154,-36 154,-36 148,-36 142,-30 142,-24 142,-24 142,-12 142,-12 142,-6 148,0 154,0 154,0 184,0 184,0 190,0 196,-6 196,-12 196,-12 196,-24 196,-24 196,-30 190,-36 184,-36"/>
<text text-anchor="middle" x="169" y="-15.5" font-family="sans" font-size="10.00">all</text>
</g>
<!-- 1 -->
<g id="node2" class="node">
<title>1</title>
<path fill="none" stroke="#56d8c1" stroke-width="2" stroke-dasharray="5,2" d="M83,-108C83,-108 53,-108 53,-108 47,-108 41,-102 41,-96 41,-96 41,-84 41,-84 41,-78 47,-72 53,-72 53,-72 83,-72 83,-72 89,-72 95,-78 95,-84 95,-84 95,-96 95,-96 95,-102 89,-108 83,-108"/>
<text text-anchor="middle" x="68" y="-87.5" font-family="sans" font-size="10.00">multiqc</text>
</g>
<!-- 1&#45;&gt;0 -->
<g id="edge1" class="edge">
<title>1&#45;&gt;0</title>
<path fill="none" stroke="grey" stroke-width="2" d="M92.71,-71.88C105.67,-62.89 121.73,-51.76 135.77,-42.03"/>
<polygon fill="grey" stroke="grey" stroke-width="2" points="137.97,-44.76 144.2,-36.19 133.98,-39.01 137.97,-44.76"/>
</g>
<!-- 2 -->
<g id="node3" class="node">
<title>2</title>
<path fill="none" stroke="#d85656" stroke-width="2" stroke-dasharray="5,2" d="M79,-324C79,-324 49,-324 49,-324 43,-324 37,-318 37,-312 37,-312 37,-300 37,-300 37,-294 43,-288 49,-288 49,-288 79,-288 79,-288 85,-288 91,-294 91,-300 91,-300 91,-312 91,-312 91,-318 85,-324 79,-324"/>
<text text-anchor="middle" x="64" y="-303.5" font-family="sans" font-size="10.00">fastqc</text>
</g>
<!-- 2&#45;&gt;1 -->
<g id="edge4" class="edge">
<title>2&#45;&gt;1</title>
<path fill="none" stroke="grey" stroke-width="2" d="M64.32,-287.85C65.01,-250.83 66.65,-163.18 67.49,-118.39"/>
<polygon fill="grey" stroke="grey" stroke-width="2" points="70.99,-118.3 67.68,-108.23 63.99,-118.17 70.99,-118.3"/>
</g>
<!-- 3 -->
<g id="node4" class="node">
<title>3</title>
<path fill="none" stroke="#bed856" stroke-width="2" stroke-dasharray="5,2" d="M280,-396C280,-396 158,-396 158,-396 152,-396 146,-390 146,-384 146,-384 146,-372 146,-372 146,-366 152,-360 158,-360 158,-360 280,-360 280,-360 286,-360 292,-366 292,-372 292,-372 292,-384 292,-384 292,-390 286,-396 280,-396"/>
<text text-anchor="middle" x="219" y="-381" font-family="sans" font-size="10.00">fastq_dump</text>
<text text-anchor="middle" x="219" y="-370" font-family="sans" font-size="10.00">sample: SAMEA104369441</text>
</g>
<!-- 3&#45;&gt;2 -->
<g id="edge5" class="edge">
<title>3&#45;&gt;2</title>
<path fill="none" stroke="grey" stroke-width="2" d="M180.05,-359.91C158.85,-350.55 131.98,-338.6 100.54,-324.21"/>
<polygon fill="grey" stroke="grey" stroke-width="2" points="101.65,-320.86 91.1,-319.87 98.73,-327.23 101.65,-320.86"/>
</g>
<!-- 7 -->
<g id="node8" class="node">
<title>7</title>
<path fill="none" stroke="#56c1d8" stroke-width="2" stroke-dasharray="5,2" d="M234,-324C234,-324 204,-324 204,-324 198,-324 192,-318 192,-312 192,-312 192,-300 192,-300 192,-294 198,-288 204,-288 204,-288 234,-288 234,-288 240,-288 246,-294 246,-300 246,-300 246,-312 246,-312 246,-318 240,-324 234,-324"/>
<text text-anchor="middle" x="219" y="-303.5" font-family="sans" font-size="10.00">trim</text>
</g>
<!-- 3&#45;&gt;7 -->
<g id="edge10" class="edge">
<title>3&#45;&gt;7</title>
<path fill="none" stroke="grey" stroke-width="2" d="M219,-359.7C219,-351.98 219,-342.71 219,-334.11"/>
<polygon fill="grey" stroke="grey" stroke-width="2" points="222.5,-334.1 219,-324.1 215.5,-334.1 222.5,-334.1"/>
</g>
<!-- 4 -->
<g id="node5" class="node">
<title>4</title>
<path fill="none" stroke="#bed856" stroke-width="2" stroke-dasharray="5,2" d="M116,-396C116,-396 12,-396 12,-396 6,-396 0,-390 0,-384 0,-384 0,-372 0,-372 0,-366 6,-360 12,-360 12,-360 116,-360 116,-360 122,-360 128,-366 128,-372 128,-372 128,-384 128,-384 128,-390 122,-396 116,-396"/>
<text text-anchor="middle" x="64" y="-381" font-family="sans" font-size="10.00">fastq_dump</text>
<text text-anchor="middle" x="64" y="-370" font-family="sans" font-size="10.00">sample: SAMEA864136</text>
</g>
<!-- 4&#45;&gt;2 -->
<g id="edge6" class="edge">
<title>4&#45;&gt;2</title>
<path fill="none" stroke="grey" stroke-width="2" d="M64,-359.7C64,-351.98 64,-342.71 64,-334.11"/>
<polygon fill="grey" stroke="grey" stroke-width="2" points="67.5,-334.1 64,-324.1 60.5,-334.1 67.5,-334.1"/>
</g>
<!-- 8 -->
<g id="node9" class="node">
<title>8</title>
<path fill="none" stroke="#56c1d8" stroke-width="2" stroke-dasharray="5,2" d="M151,-324C151,-324 121,-324 121,-324 115,-324 109,-318 109,-312 109,-312 109,-300 109,-300 109,-294 115,-288 121,-288 121,-288 151,-288 151,-288 157,-288 163,-294 163,-300 163,-300 163,-312 163,-312 163,-318 157,-324 151,-324"/>
<text text-anchor="middle" x="136" y="-303.5" font-family="sans" font-size="10.00">trim</text>
</g>
<!-- 4&#45;&gt;8 -->
<g id="edge11" class="edge">
<title>4&#45;&gt;8</title>
<path fill="none" stroke="grey" stroke-width="2" d="M81.8,-359.7C90.6,-351.14 101.38,-340.66 111,-331.3"/>
<polygon fill="grey" stroke="grey" stroke-width="2" points="113.68,-333.58 118.41,-324.1 108.8,-328.57 113.68,-333.58"/>
</g>
<!-- 5 -->
<g id="node6" class="node">
<title>5</title>
<path fill="none" stroke="#56d88a" stroke-width="2" stroke-dasharray="5,2" d="M210.5,-108C210.5,-108 127.5,-108 127.5,-108 121.5,-108 115.5,-102 115.5,-96 115.5,-96 115.5,-84 115.5,-84 115.5,-78 121.5,-72 127.5,-72 127.5,-72 210.5,-72 210.5,-72 216.5,-72 222.5,-78 222.5,-84 222.5,-84 222.5,-96 222.5,-96 222.5,-102 216.5,-108 210.5,-108"/>
<text text-anchor="middle" x="169" y="-87.5" font-family="sans" font-size="10.00">multiqc_after_trim</text>
</g>
<!-- 5&#45;&gt;0 -->
<g id="edge2" class="edge">
<title>5&#45;&gt;0</title>
<path fill="none" stroke="grey" stroke-width="2" d="M169,-71.7C169,-63.98 169,-54.71 169,-46.11"/>
<polygon fill="grey" stroke="grey" stroke-width="2" points="172.5,-46.1 169,-36.1 165.5,-46.1 172.5,-46.1"/>
</g>
<!-- 6 -->
<g id="node7" class="node">
<title>6</title>
<path fill="none" stroke="#d8bc56" stroke-width="2" stroke-dasharray="5,2" d="M253.5,-252C253.5,-252 176.5,-252 176.5,-252 170.5,-252 164.5,-246 164.5,-240 164.5,-240 164.5,-228 164.5,-228 164.5,-222 170.5,-216 176.5,-216 176.5,-216 253.5,-216 253.5,-216 259.5,-216 265.5,-222 265.5,-228 265.5,-228 265.5,-240 265.5,-240 265.5,-246 259.5,-252 253.5,-252"/>
<text text-anchor="middle" x="215" y="-231.5" font-family="sans" font-size="10.00">fastqc_after_trim</text>
</g>
<!-- 6&#45;&gt;5 -->
<g id="edge7" class="edge">
<title>6&#45;&gt;5</title>
<path fill="none" stroke="grey" stroke-width="2" d="M210.73,-215.78C206.12,-197.73 198.32,-168.63 190,-144 187.04,-135.24 183.45,-125.81 180.07,-117.37"/>
<polygon fill="grey" stroke="grey" stroke-width="2" points="183.28,-115.96 176.26,-108.02 176.79,-118.6 183.28,-115.96"/>
</g>
<!-- 7&#45;&gt;6 -->
<g id="edge8" class="edge">
<title>7&#45;&gt;6</title>
<path fill="none" stroke="grey" stroke-width="2" d="M218.01,-287.7C217.57,-279.98 217.04,-270.71 216.55,-262.11"/>
<polygon fill="grey" stroke="grey" stroke-width="2" points="220.04,-261.89 215.98,-252.1 213.05,-262.29 220.04,-261.89"/>
</g>
<!-- 11 -->
<g id="node12" class="node">
<title>11</title>
<path fill="none" stroke="#d88d56" stroke-width="2" d="M326,-252C326,-252 296,-252 296,-252 290,-252 284,-246 284,-240 284,-240 284,-228 284,-228 284,-222 290,-216 296,-216 296,-216 326,-216 326,-216 332,-216 338,-222 338,-228 338,-228 338,-240 338,-240 338,-246 332,-252 326,-252"/>
<text text-anchor="middle" x="311" y="-231.5" font-family="sans" font-size="10.00">spades</text>
</g>
<!-- 7&#45;&gt;11 -->
<g id="edge15" class="edge">
<title>7&#45;&gt;11</title>
<path fill="none" stroke="grey" stroke-width="2" d="M241.74,-287.7C253.44,-278.8 267.86,-267.82 280.51,-258.2"/>
<polygon fill="grey" stroke="grey" stroke-width="2" points="282.68,-260.94 288.52,-252.1 278.44,-255.37 282.68,-260.94"/>
</g>
<!-- 8&#45;&gt;6 -->
<g id="edge9" class="edge">
<title>8&#45;&gt;6</title>
<path fill="none" stroke="grey" stroke-width="2" d="M155.53,-287.7C165.38,-278.97 177.49,-268.24 188.2,-258.75"/>
<polygon fill="grey" stroke="grey" stroke-width="2" points="190.53,-261.36 195.7,-252.1 185.89,-256.12 190.53,-261.36"/>
</g>
<!-- 13 -->
<g id="node14" class="node">
<title>13</title>
<path fill="none" stroke="#d88d56" stroke-width="2" d="M134,-252C134,-252 104,-252 104,-252 98,-252 92,-246 92,-240 92,-240 92,-228 92,-228 92,-222 98,-216 104,-216 104,-216 134,-216 134,-216 140,-216 146,-222 146,-228 146,-228 146,-240 146,-240 146,-246 140,-252 134,-252"/>
<text text-anchor="middle" x="119" y="-231.5" font-family="sans" font-size="10.00">spades</text>
</g>
<!-- 8&#45;&gt;13 -->
<g id="edge17" class="edge">
<title>8&#45;&gt;13</title>
<path fill="none" stroke="grey" stroke-width="2" d="M131.8,-287.7C129.9,-279.9 127.62,-270.51 125.52,-261.83"/>
<polygon fill="grey" stroke="grey" stroke-width="2" points="128.92,-261 123.15,-252.1 122.11,-262.65 128.92,-261"/>
</g>
<!-- 9 -->
<g id="node10" class="node">
<title>9</title>
<path fill="none" stroke="#88d856" stroke-width="2" d="M315,-108C315,-108 253,-108 253,-108 247,-108 241,-102 241,-96 241,-96 241,-84 241,-84 241,-78 247,-72 253,-72 253,-72 315,-72 315,-72 321,-72 327,-78 327,-84 327,-84 327,-96 327,-96 327,-102 321,-108 315,-108"/>
<text text-anchor="middle" x="284" y="-87.5" font-family="sans" font-size="10.00">multiqc_quast</text>
</g>
<!-- 9&#45;&gt;0 -->
<g id="edge3" class="edge">
<title>9&#45;&gt;0</title>
<path fill="none" stroke="grey" stroke-width="2" d="M255.87,-71.88C240.49,-62.52 221.29,-50.83 204.86,-40.83"/>
<polygon fill="grey" stroke="grey" stroke-width="2" points="206.41,-37.67 196.05,-35.47 202.77,-43.65 206.41,-37.67"/>
</g>
<!-- 10 -->
<g id="node11" class="node">
<title>10</title>
<path fill="none" stroke="#59d856" stroke-width="2" d="M316.5,-180C316.5,-180 255.5,-180 255.5,-180 249.5,-180 243.5,-174 243.5,-168 243.5,-168 243.5,-156 243.5,-156 243.5,-150 249.5,-144 255.5,-144 255.5,-144 316.5,-144 316.5,-144 322.5,-144 328.5,-150 328.5,-156 328.5,-156 328.5,-168 328.5,-168 328.5,-174 322.5,-180 316.5,-180"/>
<text text-anchor="middle" x="286" y="-159.5" font-family="sans" font-size="10.00">quast_denovo</text>
</g>
<!-- 10&#45;&gt;9 -->
<g id="edge12" class="edge">
<title>10&#45;&gt;9</title>
<path fill="none" stroke="grey" stroke-width="2" d="M285.51,-143.7C285.29,-135.98 285.02,-126.71 284.77,-118.11"/>
<polygon fill="grey" stroke="grey" stroke-width="2" points="288.27,-118 284.49,-108.1 281.28,-118.2 288.27,-118"/>
</g>
<!-- 11&#45;&gt;10 -->
<g id="edge14" class="edge">
<title>11&#45;&gt;10</title>
<path fill="none" stroke="grey" stroke-width="2" d="M304.82,-215.7C302,-207.81 298.61,-198.3 295.48,-189.55"/>
<polygon fill="grey" stroke="grey" stroke-width="2" points="298.77,-188.34 292.11,-180.1 292.18,-190.7 298.77,-188.34"/>
</g>
<!-- 12 -->
<g id="node13" class="node">
<title>12</title>
<path fill="none" stroke="#59d856" stroke-width="2" d="M169.5,-180C169.5,-180 108.5,-180 108.5,-180 102.5,-180 96.5,-174 96.5,-168 96.5,-168 96.5,-156 96.5,-156 96.5,-150 102.5,-144 108.5,-144 108.5,-144 169.5,-144 169.5,-144 175.5,-144 181.5,-150 181.5,-156 181.5,-156 181.5,-168 181.5,-168 181.5,-174 175.5,-180 169.5,-180"/>
<text text-anchor="middle" x="139" y="-159.5" font-family="sans" font-size="10.00">quast_denovo</text>
</g>
<!-- 12&#45;&gt;9 -->
<g id="edge13" class="edge">
<title>12&#45;&gt;9</title>
<path fill="none" stroke="grey" stroke-width="2" d="M174.47,-143.88C194.12,-134.39 218.72,-122.51 239.63,-112.42"/>
<polygon fill="grey" stroke="grey" stroke-width="2" points="241.16,-115.57 248.64,-108.07 238.12,-109.26 241.16,-115.57"/>
</g>
<!-- 13&#45;&gt;12 -->
<g id="edge16" class="edge">
<title>13&#45;&gt;12</title>
<path fill="none" stroke="grey" stroke-width="2" d="M123.94,-215.7C126.17,-207.9 128.85,-198.51 131.33,-189.83"/>
<polygon fill="grey" stroke="grey" stroke-width="2" points="134.73,-190.68 134.11,-180.1 128,-188.76 134.73,-190.68"/>
</g>
</g>
</svg>
