<?xml version="1.0" encoding="UTF-8" standalone="no"?>
<!DOCTYPE svg PUBLIC "-//W3C//DTD SVG 1.1//EN"
 "http://www.w3.org/Graphics/SVG/1.1/DTD/svg11.dtd">
<!-- Generated by graphviz version 2.30.1 (20201013.1554)
 -->
<!-- Title: snakemake_dag Pages: 1 -->
<svg width="434pt" height="404pt"
 viewBox="0.00 0.00 434.00 404.00" xmlns="http://www.w3.org/2000/svg" xmlns:xlink="http://www.w3.org/1999/xlink">
<g id="graph0" class="graph" transform="scale(1 1) rotate(0) translate(4 400)">
<title>snakemake_dag</title>
<polygon fill="white" stroke="white" points="-4,5 -4,-400 431,-400 431,5 -4,5"/>
<!-- 0 -->
<g id="node1" class="node"><title>0</title>
<path fill="none" stroke="#68d856" stroke-width="2" d="M256,-36C256,-36 226,-36 226,-36 220,-36 214,-30 214,-24 214,-24 214,-12 214,-12 214,-6 220,-0 226,-0 226,-0 256,-0 256,-0 262,-0 268,-6 268,-12 268,-12 268,-24 268,-24 268,-30 262,-36 256,-36"/>
<text text-anchor="middle" x="241" y="-15.5" font-family="sans" font-size="10.00">all</text>
</g>
<!-- 1 -->
<g id="node2" class="node"><title>1</title>
<path fill="none" stroke="#d85656" stroke-width="2" stroke-dasharray="5,2" d="M42,-108C42,-108 12,-108 12,-108 6,-108 0,-102 0,-96 0,-96 0,-84 0,-84 0,-78 6,-72 12,-72 12,-72 42,-72 42,-72 48,-72 54,-78 54,-84 54,-84 54,-96 54,-96 54,-102 48,-108 42,-108"/>
<text text-anchor="middle" x="27" y="-87.5" font-family="sans" font-size="10.00">multiqc</text>
</g>
<!-- 1&#45;&gt;0 -->
<g id="edge1" class="edge"><title>1&#45;&gt;0</title>
<path fill="none" stroke="grey" stroke-width="2" d="M54.3311,-75.569C57.2319,-74.3015 60.1595,-73.0864 63,-72 110.761,-53.7337 167.658,-37.7592 204.042,-28.2471"/>
<polygon fill="grey" stroke="grey" points="204.932,-31.6324 213.736,-25.739 203.178,-24.8555 204.932,-31.6324"/>
</g>
<!-- 2 -->
<g id="node3" class="node"><title>2</title>
<path fill="none" stroke="#567bd8" stroke-width="2" stroke-dasharray="5,2" d="M109,-324C109,-324 79,-324 79,-324 73,-324 67,-318 67,-312 67,-312 67,-300 67,-300 67,-294 73,-288 79,-288 79,-288 109,-288 109,-288 115,-288 121,-294 121,-300 121,-300 121,-312 121,-312 121,-318 115,-324 109,-324"/>
<text text-anchor="middle" x="94" y="-303.5" font-family="sans" font-size="10.00">fastqc</text>
</g>
<!-- 2&#45;&gt;1 -->
<g id="edge6" class="edge"><title>2&#45;&gt;1</title>
<path fill="none" stroke="grey" stroke-width="2" d="M83.5366,-287.843C77.7154,-277.708 70.7154,-264.458 66,-252 48.8037,-206.569 37.3217,-151.001 31.4995,-118.449"/>
<polygon fill="grey" stroke="grey" points="34.9032,-117.593 29.7419,-108.341 28.0067,-118.792 34.9032,-117.593"/>
</g>
<!-- 3 -->
<g id="node4" class="node"><title>3</title>
<path fill="none" stroke="#56d892" stroke-width="2" stroke-dasharray="5,2" d="M189.25,-396C189.25,-396 78.75,-396 78.75,-396 72.75,-396 66.75,-390 66.75,-384 66.75,-384 66.75,-372 66.75,-372 66.75,-366 72.75,-360 78.75,-360 78.75,-360 189.25,-360 189.25,-360 195.25,-360 201.25,-366 201.25,-372 201.25,-372 201.25,-384 201.25,-384 201.25,-390 195.25,-396 189.25,-396"/>
<text text-anchor="middle" x="134" y="-381" font-family="sans" font-size="10.00">fastq_dump</text>
<text text-anchor="middle" x="134" y="-370" font-family="sans" font-size="10.00">sample: SAMN09521106</text>
</g>
<!-- 3&#45;&gt;2 -->
<g id="edge7" class="edge"><title>3&#45;&gt;2</title>
<path fill="none" stroke="grey" stroke-width="2" d="M124.112,-359.697C119.511,-351.644 113.94,-341.894 108.847,-332.982"/>
<polygon fill="grey" stroke="grey" points="111.774,-331.05 103.774,-324.104 105.696,-334.523 111.774,-331.05"/>
</g>
<!-- 6 -->
<g id="node7" class="node"><title>6</title>
<path fill="none" stroke="#b6d856" stroke-width="2" stroke-dasharray="5,2" d="M189,-324C189,-324 159,-324 159,-324 153,-324 147,-318 147,-312 147,-312 147,-300 147,-300 147,-294 153,-288 159,-288 159,-288 189,-288 189,-288 195,-288 201,-294 201,-300 201,-300 201,-312 201,-312 201,-318 195,-324 189,-324"/>
<text text-anchor="middle" x="174" y="-303.5" font-family="sans" font-size="10.00">trim</text>
</g>
<!-- 3&#45;&gt;6 -->
<g id="edge10" class="edge"><title>3&#45;&gt;6</title>
<path fill="none" stroke="grey" stroke-width="2" d="M143.888,-359.697C148.489,-351.644 154.06,-341.894 159.153,-332.982"/>
<polygon fill="grey" stroke="grey" points="162.304,-334.523 164.226,-324.104 156.226,-331.05 162.304,-334.523"/>
</g>
<!-- 4 -->
<g id="node5" class="node"><title>4</title>
<path fill="none" stroke="#56a9d8" stroke-width="2" stroke-dasharray="5,2" d="M167.25,-108C167.25,-108 84.75,-108 84.75,-108 78.75,-108 72.75,-102 72.75,-96 72.75,-96 72.75,-84 72.75,-84 72.75,-78 78.75,-72 84.75,-72 84.75,-72 167.25,-72 167.25,-72 173.25,-72 179.25,-78 179.25,-84 179.25,-84 179.25,-96 179.25,-96 179.25,-102 173.25,-108 167.25,-108"/>
<text text-anchor="middle" x="126" y="-87.5" font-family="sans" font-size="10.00">multiqc_after_trim</text>
</g>
<!-- 4&#45;&gt;0 -->
<g id="edge2" class="edge"><title>4&#45;&gt;0</title>
<path fill="none" stroke="grey" stroke-width="2" d="M154.132,-71.8761C169.505,-62.5187 188.706,-50.831 205.144,-40.8253"/>
<polygon fill="grey" stroke="grey" points="207.228,-43.6543 213.95,-35.4651 203.588,-37.6749 207.228,-43.6543"/>
</g>
<!-- 5 -->
<g id="node6" class="node"><title>5</title>
<path fill="none" stroke="#56d86b" stroke-width="2" stroke-dasharray="5,2" d="M164.25,-252C164.25,-252 87.75,-252 87.75,-252 81.75,-252 75.75,-246 75.75,-240 75.75,-240 75.75,-228 75.75,-228 75.75,-222 81.75,-216 87.75,-216 87.75,-216 164.25,-216 164.25,-216 170.25,-216 176.25,-222 176.25,-228 176.25,-228 176.25,-240 176.25,-240 176.25,-246 170.25,-252 164.25,-252"/>
<text text-anchor="middle" x="126" y="-231.5" font-family="sans" font-size="10.00">fastqc_after_trim</text>
</g>
<!-- 5&#45;&gt;4 -->
<g id="edge8" class="edge"><title>5&#45;&gt;4</title>
<path fill="none" stroke="grey" stroke-width="2" d="M126,-215.871C126,-191.67 126,-147.211 126,-118.393"/>
<polygon fill="grey" stroke="grey" points="129.5,-118.189 126,-108.189 122.5,-118.189 129.5,-118.189"/>
</g>
<!-- 6&#45;&gt;5 -->
<g id="edge9" class="edge"><title>6&#45;&gt;5</title>
<path fill="none" stroke="grey" stroke-width="2" d="M162.135,-287.697C156.497,-279.474 149.646,-269.483 143.431,-260.421"/>
<polygon fill="grey" stroke="grey" points="146.271,-258.372 137.729,-252.104 140.497,-262.331 146.271,-258.372"/>
</g>
<!-- 9 -->
<g id="node10" class="node"><title>9</title>
<path fill="none" stroke="#56d8b9" stroke-width="2" stroke-dasharray="5,2" d="M237,-252C237,-252 207,-252 207,-252 201,-252 195,-246 195,-240 195,-240 195,-228 195,-228 195,-222 201,-216 207,-216 207,-216 237,-216 237,-216 243,-216 249,-222 249,-228 249,-228 249,-240 249,-240 249,-246 243,-252 237,-252"/>
<text text-anchor="middle" x="222" y="-231.5" font-family="sans" font-size="10.00">spades</text>
</g>
<!-- 6&#45;&gt;9 -->
<g id="edge13" class="edge"><title>6&#45;&gt;9</title>
<path fill="none" stroke="grey" stroke-width="2" d="M185.865,-287.697C191.503,-279.474 198.354,-269.483 204.569,-260.421"/>
<polygon fill="grey" stroke="grey" points="207.503,-262.331 210.271,-252.104 201.729,-258.372 207.503,-262.331"/>
</g>
<!-- 12 -->
<g id="node13" class="node"><title>12</title>
<path fill="none" stroke="#d87d56" stroke-width="2" d="M361,-252C361,-252 321,-252 321,-252 315,-252 309,-246 309,-240 309,-240 309,-228 309,-228 309,-222 315,-216 321,-216 321,-216 361,-216 361,-216 367,-216 373,-222 373,-228 373,-228 373,-240 373,-240 373,-246 367,-252 361,-252"/>
<text text-anchor="middle" x="341" y="-231.5" font-family="sans" font-size="10.00">call_SNPs</text>
</g>
<!-- 6&#45;&gt;12 -->
<g id="edge16" class="edge"><title>6&#45;&gt;12</title>
<path fill="none" stroke="grey" stroke-width="2" d="M201.203,-293.597C227.807,-282.446 268.683,-265.312 299.375,-252.447"/>
<polygon fill="grey" stroke="grey" points="301.082,-255.527 308.951,-248.434 298.376,-249.072 301.082,-255.527"/>
</g>
<!-- 7 -->
<g id="node8" class="node"><title>7</title>
<path fill="none" stroke="#8fd856" stroke-width="2" stroke-dasharray="5,2" d="M272,-108C272,-108 210,-108 210,-108 204,-108 198,-102 198,-96 198,-96 198,-84 198,-84 198,-78 204,-72 210,-72 210,-72 272,-72 272,-72 278,-72 284,-78 284,-84 284,-84 284,-96 284,-96 284,-102 278,-108 272,-108"/>
<text text-anchor="middle" x="241" y="-87.5" font-family="sans" font-size="10.00">multiqc_quast</text>
</g>
<!-- 7&#45;&gt;0 -->
<g id="edge3" class="edge"><title>7&#45;&gt;0</title>
<path fill="none" stroke="grey" stroke-width="2" d="M241,-71.6966C241,-63.9827 241,-54.7125 241,-46.1124"/>
<polygon fill="grey" stroke="grey" points="244.5,-46.1043 241,-36.1043 237.5,-46.1044 244.5,-46.1043"/>
</g>
<!-- 8 -->
<g id="node9" class="node"><title>8</title>
<path fill="none" stroke="#d8a456" stroke-width="2" stroke-dasharray="5,2" d="M239.25,-180C239.25,-180 178.75,-180 178.75,-180 172.75,-180 166.75,-174 166.75,-168 166.75,-168 166.75,-156 166.75,-156 166.75,-150 172.75,-144 178.75,-144 178.75,-144 239.25,-144 239.25,-144 245.25,-144 251.25,-150 251.25,-156 251.25,-156 251.25,-168 251.25,-168 251.25,-174 245.25,-180 239.25,-180"/>
<text text-anchor="middle" x="209" y="-159.5" font-family="sans" font-size="10.00">quast_denovo</text>
</g>
<!-- 8&#45;&gt;7 -->
<g id="edge11" class="edge"><title>8&#45;&gt;7</title>
<path fill="none" stroke="grey" stroke-width="2" d="M216.91,-143.697C220.553,-135.728 224.954,-126.1 228.994,-117.264"/>
<polygon fill="grey" stroke="grey" points="232.206,-118.654 233.181,-108.104 225.84,-115.744 232.206,-118.654"/>
</g>
<!-- 9&#45;&gt;8 -->
<g id="edge12" class="edge"><title>9&#45;&gt;8</title>
<path fill="none" stroke="grey" stroke-width="2" d="M218.787,-215.697C217.354,-207.983 215.632,-198.712 214.035,-190.112"/>
<polygon fill="grey" stroke="grey" points="217.444,-189.297 212.177,-180.104 210.561,-190.575 217.444,-189.297"/>
</g>
<!-- 10 -->
<g id="node11" class="node"><title>10</title>
<path fill="none" stroke="#d8cb56" stroke-width="2" d="M312,-180C312,-180 282,-180 282,-180 276,-180 270,-174 270,-168 270,-168 270,-156 270,-156 270,-150 276,-144 282,-144 282,-144 312,-144 312,-144 318,-144 324,-150 324,-156 324,-156 324,-168 324,-168 324,-174 318,-180 312,-180"/>
<text text-anchor="middle" x="297" y="-159.5" font-family="sans" font-size="10.00">prokka</text>
</g>
<!-- 9&#45;&gt;10 -->
<g id="edge14" class="edge"><title>9&#45;&gt;10</title>
<path fill="none" stroke="grey" stroke-width="2" d="M240.539,-215.697C249.803,-207.05 261.162,-196.449 271.257,-187.027"/>
<polygon fill="grey" stroke="grey" points="273.751,-189.486 278.674,-180.104 268.975,-184.369 273.751,-189.486"/>
</g>
<!-- 10&#45;&gt;0 -->
<g id="edge4" class="edge"><title>10&#45;&gt;0</title>
<path fill="none" stroke="grey" stroke-width="2" d="M299.743,-143.79C301.916,-125.243 303.12,-95.2596 293,-72 288.266,-61.1208 280.215,-51.2136 271.843,-42.9857"/>
<polygon fill="grey" stroke="grey" points="274.207,-40.404 264.479,-36.2051 269.465,-45.5536 274.207,-40.404"/>
</g>
<!-- 11 -->
<g id="node12" class="node"><title>11</title>
<path fill="none" stroke="#56d0d8" stroke-width="2" d="M413.25,-180C413.25,-180 354.75,-180 354.75,-180 348.75,-180 342.75,-174 342.75,-168 342.75,-168 342.75,-156 342.75,-156 342.75,-150 348.75,-144 354.75,-144 354.75,-144 413.25,-144 413.25,-144 419.25,-144 425.25,-150 425.25,-156 425.25,-156 425.25,-168 425.25,-168 425.25,-174 419.25,-180 413.25,-180"/>
<text text-anchor="middle" x="384" y="-159.5" font-family="sans" font-size="10.00">get_coreSNPs</text>
</g>
<!-- 11&#45;&gt;0 -->
<g id="edge5" class="edge"><title>11&#45;&gt;0</title>
<path fill="none" stroke="grey" stroke-width="2" d="M371.894,-143.922C358.221,-125.223 334.765,-94.8582 311,-72 299.949,-61.3711 286.776,-50.9125 274.854,-42.1313"/>
<polygon fill="grey" stroke="grey" points="276.598,-39.0735 266.442,-36.0552 272.499,-44.748 276.598,-39.0735"/>
</g>
<!-- 12&#45;&gt;11 -->
<g id="edge15" class="edge"><title>12&#45;&gt;11</title>
<path fill="none" stroke="grey" stroke-width="2" d="M351.629,-215.697C356.628,-207.559 362.691,-197.689 368.212,-188.701"/>
<polygon fill="grey" stroke="grey" points="371.241,-190.457 373.493,-180.104 365.277,-186.793 371.241,-190.457"/>
</g>
</g>
</svg>
