<?xml version="1.0" encoding="UTF-8" standalone="no"?>
<!DOCTYPE svg PUBLIC "-//W3C//DTD SVG 1.1//EN"
 "http://www.w3.org/Graphics/SVG/1.1/DTD/svg11.dtd">
<!-- Generated by graphviz version 2.42.3 (20191010.1750)
 -->
<!-- Title: snakemake_dag Pages: 1 -->
<svg width="353pt" height="260pt"
 viewBox="0.00 0.00 353.00 260.00" xmlns="http://www.w3.org/2000/svg" xmlns:xlink="http://www.w3.org/1999/xlink">
<g id="graph0" class="graph" transform="scale(1 1) rotate(0) translate(4 256)">
<title>snakemake_dag</title>
<polygon fill="white" stroke="transparent" points="-4,4 -4,-256 349,-256 349,4 -4,4"/>
<!-- 0 -->
<g id="node1" class="node">
<title>0</title>
<path fill="none" stroke="#56d8d8" stroke-width="2" d="M187.5,-36C187.5,-36 157.5,-36 157.5,-36 151.5,-36 145.5,-30 145.5,-24 145.5,-24 145.5,-12 145.5,-12 145.5,-6 151.5,0 157.5,0 157.5,0 187.5,0 187.5,0 193.5,0 199.5,-6 199.5,-12 199.5,-12 199.5,-24 199.5,-24 199.5,-30 193.5,-36 187.5,-36"/>
<text text-anchor="middle" x="172.5" y="-15.5" font-family="sans" font-size="10.00">all</text>
</g>
<!-- 1 -->
<g id="node2" class="node">
<title>1</title>
<path fill="none" stroke="#d85656" stroke-width="2" d="M333,-108C333,-108 12,-108 12,-108 6,-108 0,-102 0,-96 0,-96 0,-84 0,-84 0,-78 6,-72 12,-72 12,-72 333,-72 333,-72 339,-72 345,-78 345,-84 345,-84 345,-96 345,-96 345,-102 339,-108 333,-108"/>
<text text-anchor="middle" x="172.5" y="-93" font-family="sans" font-size="10.00">multiqc</text>
<text text-anchor="middle" x="172.5" y="-82" font-family="sans" font-size="10.00">output_dir: /home/rx32940/snakemake_assembly_workdir/raw/raw/</text>
</g>
<!-- 1&#45;&gt;0 -->
<g id="edge1" class="edge">
<title>1&#45;&gt;0</title>
<path fill="none" stroke="grey" stroke-width="2" d="M172.5,-71.7C172.5,-63.98 172.5,-54.71 172.5,-46.11"/>
<polygon fill="grey" stroke="grey" stroke-width="2" points="176,-46.1 172.5,-36.1 169,-46.1 176,-46.1"/>
</g>
<!-- 2 -->
<g id="node3" class="node">
<title>2</title>
<path fill="none" stroke="#59d856" stroke-width="2" d="M187.5,-180C187.5,-180 157.5,-180 157.5,-180 151.5,-180 145.5,-174 145.5,-168 145.5,-168 145.5,-156 145.5,-156 145.5,-150 151.5,-144 157.5,-144 157.5,-144 187.5,-144 187.5,-144 193.5,-144 199.5,-150 199.5,-156 199.5,-156 199.5,-168 199.5,-168 199.5,-174 193.5,-180 187.5,-180"/>
<text text-anchor="middle" x="172.5" y="-159.5" font-family="sans" font-size="10.00">fastqc</text>
</g>
<!-- 2&#45;&gt;1 -->
<g id="edge2" class="edge">
<title>2&#45;&gt;1</title>
<path fill="none" stroke="grey" stroke-width="2" d="M172.5,-143.7C172.5,-135.98 172.5,-126.71 172.5,-118.11"/>
<polygon fill="grey" stroke="grey" stroke-width="2" points="176,-118.1 172.5,-108.1 169,-118.1 176,-118.1"/>
</g>
<!-- 3 -->
<g id="node4" class="node">
<title>3</title>
<path fill="none" stroke="#d6d856" stroke-width="2" d="M233.5,-252C233.5,-252 111.5,-252 111.5,-252 105.5,-252 99.5,-246 99.5,-240 99.5,-240 99.5,-228 99.5,-228 99.5,-222 105.5,-216 111.5,-216 111.5,-216 233.5,-216 233.5,-216 239.5,-216 245.5,-222 245.5,-228 245.5,-228 245.5,-240 245.5,-240 245.5,-246 239.5,-252 233.5,-252"/>
<text text-anchor="middle" x="172.5" y="-237" font-family="sans" font-size="10.00">fastq_dump</text>
<text text-anchor="middle" x="172.5" y="-226" font-family="sans" font-size="10.00">sample: SAMEA104369441</text>
</g>
<!-- 3&#45;&gt;2 -->
<g id="edge3" class="edge">
<title>3&#45;&gt;2</title>
<path fill="none" stroke="grey" stroke-width="2" d="M172.5,-215.7C172.5,-207.98 172.5,-198.71 172.5,-190.11"/>
<polygon fill="grey" stroke="grey" stroke-width="2" points="176,-190.1 172.5,-180.1 169,-190.1 176,-190.1"/>
</g>
</g>
</svg>
